<?xml version="1.0" encoding="UTF-8"?>
<svg width="221px" height="221px" viewBox="0 0 221 221" version="1.1" xmlns="http://www.w3.org/2000/svg" xmlns:xlink="http://www.w3.org/1999/xlink">
    <!-- Generator: Sketch 62 (91390) - https://sketch.com -->
    <title>β-colorful</title>
    <desc>Created with Sketch.</desc>
    <g id="β-colorful" stroke="none" stroke-width="1" fill="none" fill-rule="evenodd">
        <polygon id="Rectangle" fill="#83BCFF" points="48 54.9441085 65.9999995 54.9441085 65.9999995 220.709704 48 200.661203"></polygon>
        <polygon id="Rectangle" fill="#83BCFF" points="65.0999995 54.9441085 110.999998 54.9441085 96.8285143 68.4576081 65.0999995 68.4576081"></polygon>
        <path d="M110.099998,0.89010989 C144.39688,0.89010989 172.199997,28.7210293 172.199997,63.0522082 C172.199997,86.5348162 159.192052,106.976218 139.995512,117.550242 C137.476737,112.301109 134.123439,107.530585 130.107155,103.410607 C144.920099,96.039672 155.1,80.7359504 155.1,63.0522082 C155.1,38.1745423 134.952811,18.0072094 110.1,18.0072094 C89.2941785,18.0072094 71.7862478,32.1412729 66.6360144,51.3405323 L49.100631,51.3399229 C54.5732476,22.6081387 79.802898,0.89010989 110.099998,0.89010989 Z" id="Combined-Shape" fill="#FF8493"></path>
        <path d="" id="Combined-Shape" stroke="#D9F3BD" stroke-width="14.3999996"></path>
    </g>
</svg>