<?xml version="1.0" encoding="UTF-8"?>
<svg width="221px" height="221px" viewBox="0 0 221 221" version="1.1" xmlns="http://www.w3.org/2000/svg" xmlns:xlink="http://www.w3.org/1999/xlink">
    <!-- Generator: Sketch 62 (91390) - https://sketch.com -->
    <title>β-渐变</title>
    <desc>Created with Sketch.</desc>
    <defs>
        <linearGradient x1="65.961745%" y1="0%" x2="34.038255%" y2="100%" id="linearGradient-1">
            <stop stop-color="#045BA0" offset="0%"></stop>
            <stop stop-color="#9DC6FF" offset="100%"></stop>
        </linearGradient>
    </defs>
    <g id="β-渐变" stroke="none" stroke-width="1" fill="none" fill-rule="evenodd">
        <path d="M54,55.0539986 L72,55.0539986 L72,220.819594 L54,200.771093 L54,55.0539986 Z M72,55 L117.899999,55 L103.728515,68.5134996 L72,68.5134996 L72,55 Z M116.099998,1 C150.39688,1 178.199997,28.8309194 178.199997,63.1620984 C178.199997,86.6447063 165.192052,107.086108 145.995512,117.660132 C143.476737,112.410999 140.123439,107.640475 136.107155,103.520497 C150.920099,96.1495621 161.1,80.8458405 161.1,63.1620984 C161.1,38.2844325 140.952811,18.1170995 116.1,18.1170995 C95.2941785,18.1170995 77.7862478,32.251163 72.6360144,51.4504224 L55.100631,51.449813 C60.5732476,22.7180288 85.802898,1 116.099998,1 Z M101.9055,92.8917976 C126.758312,92.8917976 146.9055,113.05913 146.9055,137.936796 C146.9055,162.814462 126.758312,182.981795 101.9055,182.981795 C91.7876974,182.981795 82.4497953,179.639308 74.9336855,173.997269 L74.9,173.971798 L74.9055005,173.972795 L74.9041231,154.184882 C80.4158667,163.343038 90.4460825,169.468296 101.9055,169.468296 C119.302468,169.468296 133.4055,155.351162 133.4055,137.936796 C133.4055,120.52243 119.302468,106.405297 101.9055,106.405297 C90.4460825,106.405297 80.4158667,112.530555 74.9041231,121.688711 L74.9055005,101.900797 C82.423906,96.2435583 91.7736709,92.8917976 101.9055,92.8917976 Z" id="Combined-Shape" fill="url(#linearGradient-1)"></path>
    </g>
</svg>